<svg width="15" height="15" viewBox="0 0 15 15" fill="none" xmlns="http://www.w3.org/2000/svg">
<path d="M10.3535 8.00651e-07H14.3535C14.4861 8.00651e-07 14.6133 0.0526792 14.7071 0.146447C14.8008 0.240216 14.8535 0.367393 14.8535 0.500001V4.5C14.8537 4.59902 14.8245 4.69586 14.7695 4.77825C14.7146 4.86064 14.6365 4.92487 14.545 4.96279C14.4535 5.0007 14.3528 5.01061 14.2557 4.99124C14.1586 4.97187 14.0694 4.92411 13.9995 4.854L12.3535 3.207L0.707515 14.854L-0.00048542 14.146L11.6465 2.5L9.99951 0.854001C9.92941 0.784071 9.88164 0.6949 9.86228 0.597791C9.84291 0.500683 9.85281 0.400011 9.89073 0.308538C9.92865 0.217064 9.99287 0.138909 10.0753 0.0839806C10.1577 0.029052 10.2545 -0.000176365 10.3535 8.00651e-07Z" fill="white"/>
</svg>
