<svg width="24" height="24" viewBox="0 0 24 24" fill="none" xmlns="http://www.w3.org/2000/svg">
<path d="M13.27 5.57499C13.3076 5.41774 13.395 5.27685 13.5193 5.17334C13.6435 5.06982 13.7978 5.00922 13.9593 5.00056C14.1207 4.9919 14.2807 5.03565 14.4152 5.12529C14.5498 5.21494 14.6518 5.34567 14.706 5.49799L16.757 11.25C17.487 11.25 17.951 11.114 18.442 10.746C18.5861 10.5669 18.76 10.414 18.956 10.294L19 10.25V10.268C19.3041 10.0926 19.6489 10.0004 19.9999 10.0005C20.3509 10.0006 20.6957 10.0931 20.9996 10.2687C21.3035 10.4442 21.5559 10.6967 21.7314 11.0007C21.9068 11.3047 21.9992 11.6495 21.9992 12.0005C21.9992 12.3515 21.9068 12.6963 21.7314 13.0003C21.5559 13.3043 21.3035 13.5568 20.9996 13.7323C20.6957 13.9079 20.3509 14.0004 19.9999 14.0005C19.6489 14.0006 19.3041 13.9084 19 13.733V13.75L18.956 13.706C18.7709 13.5928 18.6054 13.4503 18.466 13.284C18.011 12.954 17.584 12.841 16.951 12.824H16.254C16.0992 12.8238 15.9483 12.7758 15.8219 12.6865C15.6955 12.5971 15.5998 12.4709 15.548 12.325L14.14 8.37499L11.72 18.425C11.6821 18.5824 11.5942 18.7233 11.4695 18.8266C11.3449 18.93 11.1901 18.9902 11.0284 18.9983C10.8667 19.0064 10.7067 18.9619 10.5724 18.8716C10.438 18.7812 10.3365 18.6498 10.283 18.497L7.459 10.407L6.699 12.347C6.586 12.634 6.309 13 6 13H2V11.5H5.489L6.802 7.97599C6.85802 7.83351 6.95631 7.71158 7.08366 7.62659C7.21101 7.5416 7.36131 7.49762 7.51439 7.50056C7.66746 7.5035 7.81597 7.55322 7.93997 7.64303C8.06396 7.73285 8.15749 7.85846 8.208 8.003L10.859 15.595L13.27 5.57499Z" fill="white"/>
</svg>
